# xmcd
#
# Track frame offsets: 
#        150
#        14801
#        39400
#        61372
#        88739
#        110597
#        138710
#        156203
#        171876
#        197519
#        218407
#        246223
#
# Disc length: 3687 seconds
#
# Revision: 0
# Processed by: cddbd v1.5.2PL0 Copyright (c) Steve Scherf et al.
# Submitted via: ExactAudioCopy v1.0b1
#
DISCID=a80e650c
DTITLE=Pat Travers - Travelin' Blues
DYEAR=2009
DGENRE=Blues Rock
TTITLE0=Free Man
TTITLE1=Too Cool Woman Blues
TTITLE2=Rock Me Baby
TTITLE3=Travelin' Blues
TTITLE4=Inside Looking Out
TTITLE5=Time Out
TTITLE6=I've Got News For You
TTITLE7=Whippin' Post
TTITLE8=Them Changes
TTITLE9=I'll Love You More Than You'll Ever Know
TTITLE10=Green Eyed Lady
TTITLE11=Built For Comfort
EXTD=
EXTT0=
EXTT1=
EXTT2=
EXTT3=
EXTT4=
EXTT5=
EXTT6=
EXTT7=
EXTT8=
EXTT9=
EXTT10=
EXTT11=
PLAYORDER=
